<?xml version="1.0" encoding="utf-8"?>
<!-- Generator: Adobe Illustrator 16.0.0, SVG Export Plug-In . SVG Version: 6.00 Build 0)  -->
<!DOCTYPE svg PUBLIC "-//W3C//DTD SVG 1.1//EN" "http://www.w3.org/Graphics/SVG/1.1/DTD/svg11.dtd" [
	<!ENTITY ns_extend "http://ns.adobe.com/Extensibility/1.0/">
	<!ENTITY ns_ai "http://ns.adobe.com/AdobeIllustrator/10.0/">
	<!ENTITY ns_graphs "http://ns.adobe.com/Graphs/1.0/">
	<!ENTITY ns_vars "http://ns.adobe.com/Variables/1.0/">
	<!ENTITY ns_imrep "http://ns.adobe.com/ImageReplacement/1.0/">
	<!ENTITY ns_sfw "http://ns.adobe.com/SaveForWeb/1.0/">
	<!ENTITY ns_custom "http://ns.adobe.com/GenericCustomNamespace/1.0/">
	<!ENTITY ns_adobe_xpath "http://ns.adobe.com/XPath/1.0/">
]>
<svg version="1.1" id="Camada_1" xmlns:x="&ns_extend;" xmlns:i="&ns_ai;" xmlns:graph="&ns_graphs;"
	 xmlns="http://www.w3.org/2000/svg" xmlns:xlink="http://www.w3.org/1999/xlink" x="0px" y="0px"
	 viewBox="0 0 637 289" enable-background="new 0 0 637 289" xml:space="preserve">
	<g i:extraneous="self">
		<g>
			<g>
				<path fill="#000000" d="M510.984,166.001c-1.377-0.716-3.708-2.002-4.592-2.474c-1.406-0.761-2.294,0.228-2.681,0.75
					c-9.589,13.312-18.934,17.719-30.772,17.719c-9.404,0-17.467-3.929-23.179-10.906c-5.709-6.981-9.064-17.017-9.064-29.238
					h68.351c0.102,0,0.199-0.01,0.294-0.028c0.664-0.128,1.154-0.683,1.205-1.364c-1.131-27.278-14.852-42.517-36.709-45.135
					c-2.261-0.271-4.608-0.406-7.039-0.406c-25.734,0-47.235,19.674-47.235,51.101c0,30.284,16.706,51.083,45.898,51.118
					c0.646,0,1.286-0.008,1.918-0.023c0.986-0.024,1.95-0.075,2.901-0.139c0.269-0.019,0.54-0.032,0.806-0.053
					c0.265-0.021,0.522-0.05,0.784-0.074c0.337-0.031,0.676-0.06,1.008-0.096c0.283-0.031,0.561-0.07,0.841-0.105
					c0.305-0.038,0.612-0.072,0.913-0.114c0.332-0.048,0.657-0.104,0.985-0.156c0.242-0.039,0.488-0.073,0.729-0.115
					c0.31-0.055,0.611-0.118,0.917-0.177c0.254-0.05,0.512-0.095,0.764-0.147c0.243-0.052,0.482-0.111,0.724-0.166
					c0.308-0.07,0.616-0.136,0.92-0.212c0.208-0.052,0.412-0.11,0.618-0.165c0.332-0.088,0.665-0.172,0.991-0.266
					c0.157-0.046,0.311-0.098,0.468-0.145c0.372-0.111,0.744-0.222,1.111-0.343c0.062-0.021,0.122-0.044,0.185-0.064
					c0.457-0.153,0.911-0.311,1.36-0.479c0.011-0.004,0.021-0.009,0.032-0.013c10.686-3.997,19.15-12.165,27.308-25.904
					c0.098-0.165,0.206-0.41,0.231-0.691C512.019,167.025,511.833,166.467,510.984,166.001z M466.047,103.257
					c10.861,0,21.358,7.593,22.219,27.299c-0.012,0.824-0.674,1.456-1.518,1.456h-45.685
					C442.985,114.231,451.816,103.257,466.047,103.257z M370.247,94.919c-0.003,0-0.006,0-0.009,0c-0.004,0-0.008,0-0.012,0
					c-10.255,0-17.812,4.14-24.89,9.506c-0.473,0.357-0.942,0.721-1.41,1.088c-2.49,1.869-3.265,3.042-4.048,3.042
					c-0.148,0-0.274-0.822-0.38-2.237c-0.551-7.357-0.571-30.747-0.572-37.979v-0.761c0-0.502-0.404-1.157-1.143-1.235
					c-0.104-0.011-0.217-0.011-0.336,0.004c-0.215,0.022-0.452,0.047-0.71,0.075c-6.704,0.72-27.433,3.34-41.816,9.755
					c-2.771,1.234-5.308,2.607-7.465,4.134c-2.152,1.543-4.33,3.341-6.343,5.354c-3.057,3.049-5.728,6.598-7.333,10.55
					c-3.566-0.883-7.471-1.43-11.598-1.43c-17.452,0-32.686,10.53-32.686,28.907c0,34.079,56.478,23.084,56.478,48.281
					c0,9.637-7.295,16.828-19.218,16.83c-6.318-0.002-12.011-2.087-16.66-5.711c-0.075-0.059-0.152-0.113-0.226-0.172
					c-0.016-0.013-0.03-0.026-0.046-0.038c-6.004-4.803-10.22-12.209-11.704-21.033c-0.208-0.601-0.765-1.062-1.461-1.062h-6.829
					c-0.817,0-1.486,0.655-1.486,1.475v31.127c0,0.82,0.668,1.485,1.486,1.485c0,0,0.952,0,4.003,0c3.083,0,3.63-2.285,6.97-2.285
					c2.85,0,6.652,1.347,11.499,2.574c4.061,1.031,8.853,1.977,14.449,1.977c0.002,0,0.004,0,0.006,0s0.003,0,0.005,0
					c21.128,0,35.364-12.866,35.364-31.236c0-16.407-10.817-23.276-22.984-27.763c-15.628-5.768-33.489-7.604-33.499-20.699
					c0.004-8.541,6.927-14.183,15.759-14.183c5.071,0,10.657,1.464,13.488,4.184c3.108,2.88,4.416,8.312,7.259,11.713
					c0.356,0.43,0.748,0.836,1.17,1.213c2.959,2.639,7.467,3.837,12.423,1.468c3.267-1.582,5.062-4.84,5.238-8.249
					c0.177-3.406-1.263-6.962-4.469-9.143c-0.916-0.623-1.977-1.133-3.184-1.496c-5.629-1.695-8.378-3.653-8.378-7.559
					c0-6.941,13.508-18.269,30.217-18.269c4.4,0,4.167,4.357,4.167,4.357v141.019c0,10.069-3.815,14.326-13.076,15.041
					c-0.862,0-1.512,0.691-1.512,1.511v5.435c0,0.839,0.65,1.485,1.512,1.485h50.768c0.818,0,1.514-0.646,1.514-1.471v-5.449
					c0-0.721-0.477-1.271-1.151-1.445c-14.461-0.581-18.449-4.774-18.449-15.106v-31.435c7.875,4.197,13.453,6.075,21.872,6.075
					c1.657,0,3.29-0.085,4.896-0.252c24.071-2.51,41.819-23.541,41.819-54.067c0-0.003,0-0.005,0-0.008c0-0.002,0-0.004,0-0.006
					c0-13.61-2.618-24.296-7.38-32.095C393.722,100.177,383.382,94.919,370.247,94.919z M360.505,188.753
					c-0.528,0.032-1.062,0.049-1.604,0.049c-13.062,0-19.96-8.132-19.96-17.987v-50.543c6.897-7.193,13.823-11.369,22.658-11.369
					c0.936,0,1.854,0.058,2.755,0.172c13.497,1.716,22.776,16.174,22.779,39.597C387.131,171.421,376.877,187.755,360.505,188.753z
					 M214.504,186.502c-7.632-0.253-11.77-2.931-11.77-15.121v-49.958c0-15.91-10.187-26.504-28.394-26.504
					c-10.966,0-19.248,5.124-27.105,12.316c-3.096,2.821-3.656,3.582-4.228,3.582c-0.387,0-0.581,0-0.581-0.58V94.919l-30.761,5.387
					l-0.489,0.097c-0.599,0.192-1.023,0.773-1.023,1.392v5.032c0,0.717,0.511,1.3,1.205,1.442c0.099,0.021,0.202,0.032,0.307,0.033
					v0.052c8.102,1.309,11.146,6.071,11.146,15.691v47.335c0,12.19-4.124,14.868-11.738,15.121c-0.72,0.1-1.32,0.73-1.32,1.476
					l0.02,5.395v0.015c0,0.82,0.656,1.485,1.474,1.485h42.744c0.817,0,1.512-0.665,1.512-1.485v-5.409
					c0-0.745-0.578-1.376-1.338-1.476c-7.606-0.253-11.739-2.931-11.739-15.121v-47.335c4.54-6.286,11.729-13.166,20.655-14.788
					c1.275-0.231,2.586-0.356,3.929-0.356c10.188,0,16.122,6.838,16.122,18.958v43.52c0,12.19-4.132,14.868-11.72,15.121
					c-0.779,0.1-1.319,0.73-1.319,1.476l-0.018,5.395v0.015c0,0.82,0.707,1.485,1.512,1.485h42.716c0.831,0,1.487-0.665,1.487-1.485
					v-5.409C215.791,187.232,215.232,186.602,214.504,186.502z M95.834,43.031H31.989c-0.411,0-0.78,0.173-1.046,0.448
					c-0.271,0.27-0.439,0.641-0.439,1.048v5.394c0,0.863,0.668,1.495,1.486,1.495c16.804,0.612,20.806,4.813,20.806,15.091v104.874
					c0,10.308-4.002,14.535-20.806,15.102c-0.817,0-1.486,0.665-1.486,1.495v5.395c0,0.835,0.668,1.5,1.486,1.5h63.845
					c0.85,0,1.527-0.665,1.527-1.485v-5.409c0-0.83-0.677-1.495-1.527-1.495c-16.769-0.566-20.76-4.794-20.772-15.102l0.012-104.874
					c0-10.278,3.991-14.479,20.76-15.091c0.85,0,1.527-0.632,1.527-1.495v-5.394C97.361,43.716,96.684,43.031,95.834,43.031z
					 M605.856,111.125c-2.235-7.243-8.766-16.207-20.491-16.207c-11.34,0-19.585,6.618-25.176,15.137
					c-0.334,0.508-0.646,0.989-0.936,1.442c-4.34,6.788-3.948,7.639-5.229,7.644c-1.133-0.003-1.319-0.763-1.319-2.075V96.576
					c0-0.806-0.694-1.476-1.525-1.476l-30.75,3.828c-0.654,0.148-1.144,0.748-1.144,1.437v4.968c0,0.703,0.507,1.296,1.164,1.444
					h0.221c0.042,0.02,0.069,0.051,0.114,0.051c9.517,1.089,13.287,3.766,14.081,10.25c0.113,0.926,0.166,1.93,0.166,3.019v51.285
					c0,1.548-0.066,2.942-0.201,4.199c-0.941,8.791-5.229,10.784-13.562,10.932c-0.263,0.054-0.49,0.192-0.688,0.363
					c-0.322,0.275-0.542,0.659-0.542,1.103v5.409c0,0.82,0.689,1.485,1.506,1.485h51.177c0.813,0,1.493-0.665,1.493-1.485v-5.409
					c0-0.706-0.523-1.307-1.198-1.466c-14.401-0.144-18.4-3.323-18.4-15.131v-27.042c0-9.955,2.861-18.541,6.789-24.771
					c4.218-6.686,9.669-10.659,14.149-10.664c4.173,0.005,8.159,2.797,9.057,8.446c0.061,0.376,0.106,0.766,0.138,1.168
					c0.525,4.911,5.345,9.041,10.752,9.041c1.062,0,2.074-0.135,3.057-0.438c4.842-1.667,7.223-5.58,7.838-10.33
					C606.62,115.031,606.484,113.15,605.856,111.125z"/>
			</g>
		</g>
	</g>
</svg>
